<?xml version="1.0" encoding="utf-8"?>
<!-- Generator: Adobe Illustrator 25.4.1, SVG Export Plug-In . SVG Version: 6.00 Build 0)  -->
<svg version="1.1" id="Layer_1" xmlns="http://www.w3.org/2000/svg" xmlns:xlink="http://www.w3.org/1999/xlink" x="0px" y="0px"
	 viewBox="0 0 1448 313.3" style="enable-background:new 0 0 1448 313.3;" xml:space="preserve">
<style type="text/css">
	.st0{fill:#DD474D;}
	.st1{fill:#E36552;}
	.st2{fill:#ED8E71;}
	.st3{fill:#F7D98E;}
</style>
<g>
	<g id="Layer_2_00000038402183640221419760000008676228134158932909_">
		<g id="Layer_1-2">
			<polygon class="st0" points="49,238.4 228.7,238.4 222.5,256.7 53.7,256.7 			"/>
			<polygon class="st1" points="239.1,208 231.9,229 46.7,229 41.4,208 			"/>
			<polygon class="st2" points="249.4,177.7 242.2,198.6 39,198.6 33.7,177.7 			"/>
			<path class="st3" d="M260.3,145.4l-7.8,22.8H31.3l-5.8-22.9l-8.4-30.3l-10,2.8c-1.2,0.3-2.3-0.4-2.7-1.5c0,0,0,0,0,0l-3.2-11.4
				c-0.3-1.2,0.4-2.3,1.5-2.7c0,0,0,0,0,0l17.6-4.8c6.8-1.8,13.8,2.2,15.7,9l10.8,39L260.3,145.4z"/>
			<path class="st3" d="M82.2,158.1c-0.1-0.5-0.2-1-0.3-1.5c-2.8-22.7-4.2-45.6-4.4-68.5c0.9-37,31.6-66.3,68.6-65.4
				c35.8,0.8,64.6,29.6,65.4,65.4v0.3c0.4,21.9-1.6,43.8-6,65.2c-0.3,1.2-0.5,2.7-0.8,4.4H219c0.1-0.5,0.2-1,0.3-1.5
				c4.7-22.6,6.9-45.6,6.4-68.6c-1-44.8-38.1-80.2-82.8-79.3c-43.4,1-78.3,35.9-79.3,79.3c0.1,23.4,1.6,46.8,4.4,70H82.2z"/>
			<circle class="st0" cx="192.1" cy="279.1" r="21.5"/>
			<circle class="st0" cx="87" cy="279.1" r="21.5"/>
		</g>
	</g>
	<g>
		<path class="st3" d="M307.2,172.2c0-1.9,0.1-3.5,0.5-4.8h26.9v2.3c0,3.7,0.4,7.2,15.3,7.2c11.1,0,14-2.1,14-7.2
			c0-4.8-2.8-5.2-5.7-5.4l-26.4-1.9c-7.3-0.6-22.9-2.1-22.9-24c0-21.2,14.5-28.1,40.7-28.1c31.5,0,39.7,10.5,39.7,26.2
			c0,1.2-0.1,2.8-0.4,4h-26.1v-1.7c0-4.3-0.4-7.3-12.9-7.3c-11.3,0-13.6,2.2-13.6,6.2c0,4.6,2.4,6,6.6,6.3l23.5,1.8
			c9.9,0.6,26.1,1.1,26.1,24c0,18.6-10.7,29.1-43.1,29.1C324.7,199,307.2,193.2,307.2,172.2z"/>
		<path class="st3" d="M411.2,154.7c0-20.5-0.1-40.7-1.5-42.6h30.1c-1.3,1.9-1.5,22.2-1.5,42.6c0,20.5,0.1,40.7,1.5,42.6h-30.1
			C411,195.4,411.2,175.2,411.2,154.7z"/>
		<path class="st3" d="M541.4,154.7c0,21.7,0.1,40.7,1.6,42.6h-23.6L486.4,157v40.3h-28.6c1.3-1.9,1.5-22.2,1.5-42.6
			c0-20.5-0.1-40.7-1.5-42.6h23.5l32.9,40.3v-40.3h28.7C541.5,114,541.4,134.2,541.4,154.7z"/>
		<path class="st3" d="M559.3,154.7c0-32.2,14.6-44.3,45.7-44.3c27.8,0,44,8.6,44,29.7v3.2h-26.3v-1.7c0-5.8-4.8-8.4-16.9-8.4
			c-13,0-17.9,4.9-17.9,13v17.7c0,7.6,4.8,12.8,19.4,12.8c11.6,0,17.1-2.2,17.1-8.4v-2.3h-17.4v-17.2h43.5
			c-0.6,3.9-0.6,12.5-0.6,19.7c0,22-16.7,30.6-44.7,30.6C574.4,199,559.3,186.9,559.3,154.7z"/>
		<path class="st3" d="M668.4,162c0.1-13.3,0.9-47.4-0.9-49.9h28.6v52.5c0,7.8,3.5,10.2,14.2,10.2c10.8,0,14.2-2.4,14.2-10.2v-52.5
			h28.7c-1.8,2.6-1.3,37.6-0.9,49.9c0.9,27.6-11.8,37-42.1,37C680.1,199,667.9,189.7,668.4,162z"/>
		<path class="st3" d="M840.5,197.3h-69.5c1.3-1.9,1.5-22.2,1.5-42.6c0-20.5-0.1-40.7-1.5-42.6h28.6v60.7h40.6L840.5,197.3z"/>
		<path class="st3" d="M917.1,184.7h-31.7l-3.8,12.7h-29.4c1.9-1.9,8.5-22.2,15-42.6c6.6-20.5,12.5-39.1,12.7-42.6h42.6
			c0.1,3.5,6.1,22.2,12.7,42.6c6.6,20.5,13,40.7,15.1,42.6h-29.5L917.1,184.7z M910.5,163.2l-7.8-25.9h-2.9l-7.8,25.9H910.5z"/>
		<path class="st3" d="M1007.6,175h-16.3v22.3h-28.6c1.3-1.9,1.5-22.2,1.5-42.6c0-20.5-0.1-40.7-1.5-42.6h49.9
			c20,0,32.4,7.9,32.4,30.1c0,12.7-4,21.7-11.7,26.9c9.5,19.6,12.9,26.4,14.9,28.3h-30.3L1007.6,175z M991.3,154h19
			c5.4,0,7.3-1.6,7.3-5.7v-8.4c0-4.5-2.3-5.8-7.3-5.8h-19V154z"/>
		<path class="st3" d="M1060.9,154.7c0-32.2,13.9-44.3,44.3-44.3c25.2,0,41.5,9.4,41.5,30.4v5.5h-26.2v-3c0-6.2-5.1-9.1-15.3-9.1
			c-10.7,0-16,4.1-16,12.9v15.3c0,9.4,6.1,12.4,16,12.4c10.1,0,15.2-2.9,15.2-9.9v-3.4h26.8v6.3c0,21.2-15.5,31.2-42,31.2
			C1074.8,199,1060.9,186.9,1060.9,154.7z"/>
		<path class="st3" d="M1221.1,184.7h-31.7l-3.8,12.7h-29.4c1.9-1.9,8.5-22.2,15-42.6c6.6-20.5,12.5-39.1,12.7-42.6h42.6
			c0.1,3.5,6.1,22.2,12.7,42.6c6.6,20.5,13,40.7,15.1,42.6h-29.5L1221.1,184.7z M1214.5,163.2l-7.8-25.9h-2.9l-7.8,25.9H1214.5z"/>
		<path class="st3" d="M1311.6,175h-16.3v22.3h-28.6c1.3-1.9,1.5-22.2,1.5-42.6c0-20.5-0.1-40.7-1.5-42.6h49.9
			c20,0,32.4,7.9,32.4,30.1c0,12.7-4,21.7-11.7,26.9c9.5,19.6,12.9,26.4,14.9,28.3h-30.3L1311.6,175z M1295.2,154h19
			c5.4,0,7.3-1.6,7.3-5.7v-8.4c0-4.5-2.3-5.8-7.3-5.8h-19V154z"/>
		<path class="st3" d="M1415.3,135.8c-0.1,5.8-0.1,12.4-0.1,18.9c0,20.5,0.2,40.7,1.6,42.6h-30.4c1.5-1.9,1.7-22.2,1.7-42.6
			c0-6.5,0-13-0.1-18.9h-25.2l-0.4-23.8h78.4l-0.4,23.8H1415.3z"/>
	</g>
</g>
</svg>
