<svg xmlns="http://www.w3.org/2000/svg" viewBox="0 0 1448.04 313.31"><defs><style>.cls-1{fill:#dd474d;}.cls-2{fill:#e36552;}.cls-3{fill:#ed8e71;}.cls-4{fill:#f7d98e;}</style></defs><g id="Layer_2" data-name="Layer 2"><g id="Layer_1-2" data-name="Layer 1"><polygon class="cls-1" points="50.97 246.84 242.77 246.84 236.13 266.36 55.91 266.36 50.97 246.84"/><polygon class="cls-2" points="253.78 214.44 246.17 236.83 48.44 236.83 42.78 214.44 253.78 214.44"/><polygon class="cls-3" points="264.79 182.04 257.18 204.43 40.25 204.43 34.58 182.04 264.79 182.04"/><path class="cls-4" d="M276.49,147.63,268.2,172H32.05l-6.17-24.4-8.94-32.37L6.3,118.19a2.31,2.31,0,0,1-2.85-1.62L.08,104.38a2.31,2.31,0,0,1,1.63-2.85l18.8-5.09A13.67,13.67,0,0,1,37.27,106l11.49,41.62Z"/><path class="cls-4" d="M86.38,161.19c-.1-.53-.19-1.07-.29-1.59a626.64,626.64,0,0,1-4.66-73.08,71.52,71.52,0,0,1,143,0v.32A312.83,312.83,0,0,1,218,156.46c-.28,1.31-.57,2.88-.86,4.73h15.22c.1-.57.2-1.11.3-1.58a322.68,322.68,0,0,0,6.85-73.25,86.52,86.52,0,0,0-173,.09,630.16,630.16,0,0,0,4.74,74.74Z"/><circle class="cls-1" cx="203.65" cy="290.33" r="22.98"/><circle class="cls-1" cx="91.51" cy="290.33" r="22.98"/><path class="cls-4" d="M322.58,165.24a29.84,29.84,0,0,1,.42-5.46h25.76v4.34c0,4.62.84,9.24,22.54,9.24,15.68,0,19.88-2.38,19.88-9.94,0-7-3.78-7.7-7.7-8.12l-32.76-3.08c-9.38-1-25.9-3.08-25.9-27.3S341.48,93.28,370,93.28c30.94,0,44.94,9.38,44.94,28.28a29.21,29.21,0,0,1-.56,6H389.36V124.5c0-5.88-1-9.8-19.18-9.8-16.38,0-19.32,3.08-19.32,8.82,0,7,3.08,8.68,8.26,9.24l31.5,3.08c10.64.84,27.3,2,27.3,26.88,0,22.54-13.72,32.48-48.16,32.48C346,195.2,322.58,190.3,322.58,165.24Z"/><path class="cls-4" d="M550.08,144.24c0,23.52.14,46.76,1.4,49H524.32v-37h-45.5v37H451.66c1.26-2.24,1.54-25.48,1.54-49s-.28-46.76-1.54-49h27.16v38.08h45.5V95.24h27.16C550.22,97.48,550.08,120.72,550.08,144.24Z"/><path class="cls-4" d="M584.38,144.24c0-37,16.8-51,53.48-51s53.48,14,53.48,51-16.8,51-53.48,51S584.38,181.2,584.38,144.24Zm80.08,11.9v-23.8c0-12.18-12-15.82-26.6-15.82-15.4,0-26.6,4.34-26.6,15.82v23.8c0,11.9,12.18,15.68,26.6,15.68C652.7,171.82,664.46,168.18,664.46,156.14Z"/><path class="cls-4" d="M814.12,131.5c0,25.9-12.46,36.12-32.62,36.12H751.4v25.62H724.24c1.4-2.24,1.54-25.48,1.54-49s-.14-46.76-1.54-49h58C801.66,95.24,814.12,105.46,814.12,131.5Zm-26.32-7.14c0-6.44-4.2-7.84-9.94-7.84H751.4v30.1h26.46c6,0,9.94-1.68,9.94-7.7Z"/><path class="cls-4" d="M844.64,165.24a29.84,29.84,0,0,1,.42-5.46h25.76v4.34c0,4.62.84,9.24,22.54,9.24,15.68,0,19.88-2.38,19.88-9.94,0-7-3.78-7.7-7.7-8.12l-32.76-3.08c-9.38-1-25.9-3.08-25.9-27.3s16.66-31.64,45.22-31.64c30.94,0,44.94,9.38,44.94,28.28a29.21,29.21,0,0,1-.56,6H911.42V124.5c0-5.88-1-9.8-19.18-9.8-16.38,0-19.32,3.08-19.32,8.82,0,7,3.08,8.68,8.26,9.24l31.5,3.08c10.64.84,27.3,2,27.3,26.88,0,22.54-13.72,32.48-48.16,32.48C868,195.2,844.64,190.3,844.64,165.24Z"/><path class="cls-4" d="M1024.82,117.64c-.14,8-.14,17.22-.14,26.6,0,23.52.14,46.76,1.54,49H997.38c1.4-2.24,1.54-25.48,1.54-49,0-9.38,0-18.62-.14-26.6H967.14l-.42-22.4h90.16l-.28,22.4Z"/><path class="cls-4" d="M1083.48,144.24c0-37,16.8-51,53.48-51s53.48,14,53.48,51-16.8,51-53.48,51S1083.48,181.2,1083.48,144.24Zm80.08,11.9v-23.8c0-12.18-12-15.82-26.6-15.82-15.4,0-26.6,4.34-26.6,15.82v23.8c0,11.9,12.18,15.68,26.6,15.68C1151.8,171.82,1163.56,168.18,1163.56,156.14Z"/><path class="cls-4" d="M1274,163.84H1250.5v29.4h-27.16c1.4-2.24,1.54-25.48,1.54-49s-.14-46.76-1.54-49h58.1c21,0,34.3,8.12,34.3,33.6,0,16.52-5.6,26.32-15.54,31.22,12,23.1,16.1,31.08,18.62,33.18H1289ZM1250.5,143h29.4c6.44,0,9.8-1.82,9.8-7.7V124.22c0-6.16-3.78-7.7-9.8-7.7h-29.4Z"/><path class="cls-4" d="M1405.76,156.7c.14,20.3.42,34.72,1.54,36.54h-28.84c1.12-1.82,1.4-16.24,1.54-36.4-26.32-39.2-39.2-58.8-42.28-61.6h31.5l23.8,38.22,22.82-38.22H1448C1445.1,98,1432.08,117.64,1405.76,156.7Z"/></g></g></svg>