<svg width="1126" height="103" viewBox="0 0 1126 103" fill="none" xmlns="http://www.w3.org/2000/svg">
<path d="M0.580557 72.2398C0.552908 70.4108 0.693513 68.5831 1.00057 66.7798H26.7606V71.1198C26.7606 75.7398 27.6006 80.3598 49.3006 80.3598C64.9806 80.3598 69.1806 77.9798 69.1806 70.4198C69.1806 63.4198 65.4006 62.7198 61.4806 62.2998L28.7206 59.2198C19.3406 58.2198 2.82058 56.1398 2.82058 31.9198C2.82058 7.69979 19.4806 0.279785 48.0006 0.279785C78.9406 0.279785 92.9406 9.65978 92.9406 28.5598C92.9613 30.5737 92.7736 32.5844 92.3806 34.5598H67.3606V31.4998C67.3606 25.6198 66.3606 21.6998 48.1806 21.6998C31.8006 21.6998 28.8606 24.7798 28.8606 30.5198C28.8606 37.5198 31.9406 39.1998 37.1206 39.7598L68.6206 42.8398C79.2606 43.6798 95.9206 44.8398 95.9206 69.7198C95.9206 92.2598 82.2006 102.2 47.7606 102.2C24.0006 102.2 0.580557 97.2998 0.580557 72.2398Z" fill="#F7D98E"/>
<path d="M228.08 51.2398C228.08 74.7598 228.22 97.9998 229.48 100.24H202.32V63.2398H156.82V100.24H129.66C130.92 97.9998 131.2 74.7598 131.2 51.2398C131.2 27.7198 130.92 4.47975 129.66 2.23975H156.82V40.3198H202.32V2.23975H229.48C228.22 4.47975 228.08 27.7198 228.08 51.2398Z" fill="#F7D98E"/>
<path d="M262.381 51.2398C262.381 14.2398 279.181 0.239746 315.861 0.239746C352.541 0.239746 369.341 14.2398 369.341 51.2398C369.341 88.2398 352.541 102.24 315.861 102.24C279.181 102.24 262.381 88.1998 262.381 51.2398ZM342.461 63.1397V39.3397C342.461 27.1597 330.461 23.5197 315.861 23.5197C300.461 23.5197 289.261 27.8597 289.261 39.3397V63.1397C289.261 75.0397 301.441 78.8198 315.861 78.8198C330.701 78.8198 342.461 75.1797 342.461 63.1397Z" fill="#F7D98E"/>
<path d="M492.12 38.4997C492.12 64.3997 479.66 74.6197 459.5 74.6197H429.4V100.24H402.24C403.64 97.9998 403.78 74.7598 403.78 51.2398C403.78 27.7198 403.64 4.47975 402.24 2.23975H460.24C479.66 2.23975 492.12 12.4597 492.12 38.4997ZM465.8 31.3597C465.8 24.9197 461.6 23.5197 455.86 23.5197H429.4V53.6197H455.86C461.86 53.6197 465.8 51.9397 465.8 45.9197V31.3597Z" fill="#F7D98E"/>
<path d="M522.64 72.2398C522.612 70.4108 522.753 68.5831 523.06 66.7798H548.82V71.1198C548.82 75.7398 549.66 80.3598 571.36 80.3598C587.04 80.3598 591.24 77.9798 591.24 70.4198C591.24 63.4198 587.46 62.7198 583.54 62.2998L550.78 59.2198C541.4 58.2198 524.88 56.1398 524.88 31.9198C524.88 7.69979 541.54 0.279785 570.1 0.279785C601.04 0.279785 615.04 9.65978 615.04 28.5598C615.061 30.5737 614.873 32.5844 614.48 34.5598H589.42V31.4998C589.42 25.6198 588.42 21.6998 570.24 21.6998C553.86 21.6998 550.92 24.7798 550.92 30.5198C550.92 37.5198 554 39.1998 559.18 39.7598L590.68 42.8398C601.32 43.6798 617.98 44.8398 617.98 69.7198C617.98 92.2598 604.26 102.2 569.82 102.2C546 102.2 522.64 97.2998 522.64 72.2398Z" fill="#F7D98E"/>
<path d="M702.821 24.6397C702.681 32.6397 702.681 41.8598 702.681 51.2398C702.681 74.7598 702.821 97.9998 704.221 100.24H675.381C676.781 97.9998 676.921 74.7598 676.921 51.2398C676.921 41.8598 676.921 32.6197 676.781 24.6397H645.141L644.721 2.23975H734.881L734.601 24.6397H702.821Z" fill="#F7D98E"/>
<path d="M761.48 51.2398C761.48 14.2398 778.28 0.239746 814.96 0.239746C851.64 0.239746 868.44 14.2398 868.44 51.2398C868.44 88.2398 851.64 102.24 814.96 102.24C778.28 102.24 761.48 88.1998 761.48 51.2398ZM841.561 63.1397V39.3397C841.561 27.1597 829.56 23.5197 814.96 23.5197C799.56 23.5197 788.36 27.8597 788.36 39.3397V63.1397C788.36 75.0397 800.54 78.8198 814.96 78.8198C829.8 78.8198 841.561 75.1797 841.561 63.1397Z" fill="#F7D98E"/>
<path d="M952 70.8397H928.5V100.24H901.34C902.74 97.9998 902.88 74.7598 902.88 51.2398C902.88 27.7198 902.74 4.47975 901.34 2.23975H959.44C980.44 2.23975 993.74 10.3597 993.74 35.8397C993.74 52.3597 988.14 62.1597 978.2 67.0597C990.2 90.1597 994.3 98.1398 996.82 100.24H967L952 70.8397ZM928.5 49.9997H957.9C964.34 49.9997 967.7 48.1798 967.7 42.2998V31.2197C967.7 25.0597 963.92 23.5197 957.9 23.5197H928.5V49.9997Z" fill="#F7D98E"/>
<path d="M1083.76 63.6997C1083.9 83.9997 1084.18 98.4198 1085.3 100.24H1056.46C1057.58 98.4198 1057.86 83.9997 1058 63.8397C1031.68 24.6397 1018.8 5.03975 1015.72 2.23975H1047.22L1071.02 40.4598L1093.84 2.23975H1126C1123.1 4.99975 1110.08 24.6397 1083.76 63.6997Z" fill="#F7D98E"/>
</svg>
