<svg width="277" height="313" viewBox="0 0 277 313" fill="none" xmlns="http://www.w3.org/2000/svg">
<path d="M50.9707 245.84H242.771L236.131 265.36H55.9107L50.9707 245.84Z" fill="#DD474D"/>
<path d="M253.78 213.44L246.17 235.83H48.4403L42.7803 213.44H253.78Z" fill="#E36552"/>
<path d="M264.79 181.04L257.18 203.43H40.2501L34.5801 181.04H264.79Z" fill="#ED8E71"/>
<path d="M276.49 146.63L268.2 171H32.0503L25.8803 146.6L16.9403 114.23L6.30034 117.19C6.00683 117.272 5.70002 117.295 5.39759 117.258C5.09515 117.22 4.80307 117.124 4.53816 116.973C4.27325 116.823 4.04075 116.621 3.85406 116.38C3.66736 116.139 3.53015 115.864 3.45034 115.57L0.0803365 103.38C-0.00136204 103.086 -0.0239359 102.778 0.0139201 102.475C0.0517761 102.172 0.149311 101.88 0.300885 101.615C0.45246 101.35 0.655066 101.118 0.896991 100.931C1.13892 100.745 1.41536 100.609 1.71034 100.53L20.5103 95.4399C24.0004 94.4925 27.7236 94.9665 30.8649 96.7583C34.0061 98.5501 36.3094 101.514 37.2703 105L48.7603 146.62L276.49 146.63Z" fill="#F7D98E"/>
<path d="M86.3807 160.19C86.2807 159.66 86.1907 159.12 86.0907 158.6C83.1142 134.352 81.5582 109.95 81.4307 85.52C81.8724 66.8498 89.5993 49.0929 102.96 36.0445C116.321 22.9961 134.255 15.6912 152.931 15.6912C171.606 15.6912 189.541 22.9961 202.901 36.0445C216.262 49.0929 223.989 66.8498 224.431 85.52V85.84C224.896 109.214 222.739 132.566 218.001 155.46C217.721 156.77 217.431 158.34 217.141 160.19H232.361C232.461 159.62 232.561 159.08 232.661 158.61C237.729 134.534 240.027 109.958 239.511 85.36C239.013 62.741 229.675 41.2169 213.497 25.4003C197.32 9.58364 175.591 0.732871 152.967 0.744641C130.342 0.756411 108.622 9.62978 92.4617 25.4632C76.301 41.2967 66.9853 62.8305 66.5107 85.45C66.6076 110.435 68.1904 135.393 71.2507 160.19H86.3807Z" fill="#F7D98E"/>
<path d="M203.65 312.31C216.341 312.31 226.63 302.022 226.63 289.33C226.63 276.639 216.341 266.35 203.65 266.35C190.958 266.35 180.67 276.639 180.67 289.33C180.67 302.022 190.958 312.31 203.65 312.31Z" fill="#DD474D"/>
<path d="M91.5103 312.31C104.202 312.31 114.49 302.022 114.49 289.33C114.49 276.639 104.202 266.35 91.5103 266.35C78.8188 266.35 68.5303 276.639 68.5303 289.33C68.5303 302.022 78.8188 312.31 91.5103 312.31Z" fill="#DD474D"/>
</svg>
